<?xml version="1.0" encoding="UTF-8"?>
<svg id="Layer_1" xmlns="http://www.w3.org/2000/svg" version="1.1" viewBox="0 0 50 50">
  <!-- Generator: Adobe Illustrator 30.0.0, SVG Export Plug-In . SVG Version: 2.1.1 Build 123)  -->
  <path fill="white" d="M47.3,21.8l-14.7,14.7-9.8,10c-.5.5-1.2-.1-.8-.7l3.2-4.9c.3-.5-.3-1.1-.8-.7l-6,4.5c-.5.4-1.1-.3-.7-.8l5.8-9.3c.4-.5-.2-1.1-.7-.8l-12.6,9.4c-.5.3-1.1-.3-.7-.8l5.5-7.1c.4-.5-.3-1.1-.8-.7l-11.4,7.7c-.5.4-1.1-.2-.8-.7l11.9-15.8c.3-.5-.2-1-.7-.8l-7.5,3.4c-.5.2-1-.5-.6-.9l9.4-9.4L29,3.5c2-2,5.2-2,7.2,0l11.1,11.1c2,2,2,5.2,0,7.2Z"/>
</svg>